# xmcd CD database file
#
# Track frame offsets:
#	302
#	63918
#	99782
#	131142
#	166429
#	195620
#	223313
#
# Disc length: 3551 seconds
#
# Revision: 0
# Processed by: cddbd v1.5.2PL0 Copyright (c) Steve Scherf et al.
# Submitted via: CDex 1.82
#
DISCID=650ddb07
DTITLE=Bobby Zankel and the Warriors of the Wonderful Sound - Ceremonies of Forgiveness
DYEAR=2006
DGENRE=Jazz
TTITLE0=Choose Hipe
TTITLE1=Ndura: The Forest is Our Father and Mother Pt.1
TTITLE2=Ndura: The Forest is Our Father and Mother Pt.2
TTITLE3=Infinite Potential of a Single Moment Pt.1
TTITLE4=Infinite Potential of a Single Moment Pt.2
TTITLE5=Ceremonies of Forgiveness Pt.1
TTITLE6=Ceremonies of Forgiveness Pt.2
EXTD=YEAR: 2006
EXTT0=
EXTT1=
EXTT2=
EXTT3=
EXTT4=
EXTT5=
EXTT6=
PLAYORDER=
